<svg t="1713282684233" class="icon" viewBox="0 0 1024 1024" version="1.1" xmlns="http://www.w3.org/2000/svg"><path d="M202.666667 938.666667h618.666666a10.666667 10.666667 0 0 0 10.666667-10.666667V298.666667H650.666667c-17.642667 0-32-14.357333-32-32V85.333333H202.666667a10.666667 10.666667 0 0 0-10.666667 10.666667v832a10.666667 10.666667 0 0 0 10.666667 10.666667z" fill="#FFFFFF" p-id="2094"></path><path d="M827.584 277.333333L640 89.749333V266.666667a10.666667 10.666667 0 0 0 10.666667 10.666666h176.917333z" fill="#FFFFFF" p-id="2095"></path><path d="M843.957333 263.541333L653.792 73.376A31.765333 31.765333 0 0 0 631.168 64H202.666667c-17.642667 0-32 14.357333-32 32v832c0 17.642667 14.357333 32 32 32h618.666666c17.642667 0 32-14.357333 32-32V286.165333c0-8.533333-3.338667-16.576-9.376-22.624zM640 89.749333L827.584 277.333333H650.666667a10.666667 10.666667 0 0 1-10.666667-10.666666V89.749333zM821.333333 938.666667H202.666667a10.666667 10.666667 0 0 1-10.666667-10.666667V96a10.666667 10.666667 0 0 1 10.666667-10.666667h416v181.333334c0 17.642667 14.357333 32 32 32h181.333333v629.333333a10.666667 10.666667 0 0 1-10.666667 10.666667z" fill="#605E5C" opacity=".64" p-id="2096"></path><path d="M757.333333 394.666667H266.666667a10.666667 10.666667 0 1 1 0-21.333334h490.666666a10.666667 10.666667 0 1 1 0 21.333334z m0 64H266.666667a10.666667 10.666667 0 1 1 0-21.333334h490.666666a10.666667 10.666667 0 1 1 0 21.333334z m0 64H266.666667a10.666667 10.666667 0 1 1 0-21.333334h490.666666a10.666667 10.666667 0 1 1 0 21.333334z m0 64H266.666667a10.666667 10.666667 0 1 1 0-21.333334h490.666666a10.666667 10.666667 0 1 1 0 21.333334z" fill="#C8C6C4" p-id="2097"></path><path d="M704.501333 672.032l148.896 0.405333A21.333333 21.333333 0 0 1 874.666667 693.834667l-0.384 138.229333A21.333333 21.333333 0 0 1 852.906667 853.333333L704 852.928a10.666667 10.666667 0 0 1-10.634667-10.698667L693.792 682.666667a10.666667 10.666667 0 0 1 10.709333-10.634667zM330.666667 842.634667a10.666667 10.666667 0 0 1-10.698667 10.666666l-149.696-0.405333c-11.808-0.032-20.970667-9.610667-20.938667-21.397333V693.269333A21.354667 21.354667 0 0 1 170.773333 672l149.258667 0.405333a10.666667 10.666667 0 0 1 10.634667 10.666667v159.573333z" fill="#D65532" p-id="2098"></path></svg>